<?xml version="1.0" encoding="UTF-8"?>
<svg width="180px" height="48px" viewBox="0 0 180 48" version="1.1" xmlns="http://www.w3.org/2000/svg" xmlns:xlink="http://www.w3.org/1999/xlink">
    <!-- Generator: sketchtool 50.2 (55047) - http://www.bohemiancoding.com/sketch -->
    <title>2C408590-7172-427A-AACE-1DDFF75E55B9</title>
    <desc>Created with sketchtool.</desc>
    <defs>
        <polygon id="path-1" points="13.1980198 15.6883366 13.1980198 0.218411194 9.26176828e-05 0.218411194 9.26176828e-05 15.6883366"></polygon>
    </defs>
    <g id="Exportable" stroke="none" stroke-width="1" fill="none" fill-rule="evenodd">
        <g id="Atecna-Lib" transform="translate(-110.000000, -1461.000000)">
            <g id="Group" transform="translate(110.000000, 1461.000000)">
                <g id="Logo/Line" transform="translate(8.000000, 0.000000)">
                    <g id="Logo/Text-Black" transform="translate(43.500000, 13.500000)" fill="#35312E">
                        <polygon id="Fill-1" points="9.00844475 2.34526807 0.49994475 20.7020559 0.49994475 21.3072429 5.50006975 21.3072429 6.68794475 18.7480643 6.74319475 18.6652261 6.82606975 18.6652261 15.058596 18.6652261 15.1688198 18.6652261 15.1964448 18.7480643 16.3843198 21.3072429 21.3844448 21.3072429 21.3844448 20.7020559 18.4561948 14.3719487 13.3179448 14.3719487 8.59406975 14.3719487 8.373346 14.3719487 8.45594475 14.1793017 10.776721 8.70289622 10.9145698 8.40016513 11.052971 8.70289622 12.4615698 11.922579 16.274096 9.6658563 12.019846 0.528881513"></polygon>
                        <polygon id="Fill-2" points="17.8485553 0.528964076 17.8485553 5.17973929 23.5945553 5.17973929 23.7326803 5.17973929 23.7326803 5.31761954 23.7326803 21.3073254 28.6775553 21.3073254 28.6775553 5.31761954 28.6775553 5.17973929 28.8156803 5.17973929 34.5340553 5.17973929 34.5340553 0.528964076"></polygon>
                        <polygon id="Fill-3" points="35.9153881 0.528964076 35.9153881 21.3073254 48.7607369 21.3073254 48.7607369 16.8764431 41.0257369 16.8764431 40.8878881 16.8764431 40.8878881 16.738838 40.8878881 12.776088 40.8878881 12.6382078 41.0257369 12.6382078 47.6004869 12.6382078 47.6004869 8.86782962 41.0257369 8.86782962 40.8878881 8.86782962 40.8878881 8.73022458 40.8878881 5.31761954 40.8878881 5.17973929 41.0257369 5.17973929 48.4844869 5.17973929 48.4844869 0.528964076"></polygon>
                        <path d="M49.94875,11.0144408 C49.976375,18.0873399 55.4185,21.2797769 60.44625,21.2797769 L60.529125,21.2797769 C64.7005,21.2797769 69.424375,19.1881803 70.253125,13.3537265 L65.280625,13.3537265 C64.7005,15.4455983 62.9325,16.7112895 60.529125,16.7112895 C57.435125,16.6840437 55.1975,14.2894408 55.1975,10.9869197 C55.1975,7.43670966 57.324625,5.06990294 60.529125,5.06990294 C62.462875,5.06990294 63.87175,5.78544916 64.728125,7.16149958 L68.8995,4.65708782 C67.242,2.04259202 64.120375,0.473894538 60.529125,0.473894538 C57.79425,0.473894538 55.225125,1.40988403 53.291375,3.11591134 C51.109,5.06990294 49.976375,7.79448277 49.94875,11.0144408" id="Fill-4"></path>
                        <polygon id="Fill-6" points="83.789375 0.528964076 83.789375 11.0422645 74.231125 1.49219937 71.60675 3.06117206 71.60675 21.3073254 76.524 21.3073254 76.524 10.8493422 86.8007763 21.2795292 88.73425 21.2795292 88.73425 0.528964076"></polygon>
                        <path d="M93.0712921,14.3720588 L90.1433184,20.7018908 L90.1433184,21.3073529 L95.1431671,21.3073529 L96.3313184,18.7754202 L96.3589434,18.6931324 L96.4415421,18.6931324 L104.673792,18.6931324 L104.756943,18.6931324 L104.784292,18.7754202 L105.972167,21.3073529 L110.972292,21.3073529 L110.972292,20.7013403 L102.519042,2.34537815 L99.5081934,0.556512605 L93.0712921,14.3720588 Z M100.475068,8.7030063 L100.613193,8.4 L100.751318,8.7030063 L103.071542,14.1794118 L103.154141,14.3720588 L102.933417,14.3720588 L98.2095421,14.3720588 L97.9888184,14.3720588 L100.475068,8.7030063 Z" id="Fill-7"></path>
                    </g>
                    <g id="Logo/Cube" transform="translate(7.500000, 8.500000)">
                        <path d="M28.2331548,7.66114693 C28.0667338,7.37892456 27.8351311,7.13345351 27.5492105,6.9575557 L16.4082456,0.277599561 C16.0846491,0.0924561404 15.7148246,0 15.368114,0 C14.9982895,0 14.6515789,0.0924561404 14.3279825,0.277599561 L3.16390351,6.9575557 C2.87405351,7.13599605 2.63412982,7.37984912 2.46169912,7.66415175 C2.27701798,7.96902588 2.17,8.32012807 2.17,8.69110833 L2.17,22.0739035 C2.17,22.453436 2.27632456,22.8117035 2.46632193,23.1212004 C2.63551667,23.3964886 2.87035526,23.6336386 3.16390351,23.8074561 L14.3048684,30.4874123 C14.6284649,30.6723246 14.9982895,30.7878947 15.345,30.7878947 C15.7148246,30.7878947 16.0615351,30.6956697 16.3851316,30.4874123 L27.5260965,23.8074561 C27.8103991,23.632714 28.0454689,23.3944083 28.2174373,23.1175022 C28.4085904,22.8086987 28.52,22.451818 28.52,22.0739035 L28.52,8.69110833 C28.52,8.32752456 28.4164491,7.9720307 28.2331548,7.66114693" id="Fill-1" fill="#F4A11E"></path>
                        <g id="Group-2" stroke-width="1" transform="translate(2.170000, 0.000000)">
                            <g id="Page-1">
                                <g id="Group-3" transform="translate(13.198020, 7.449254)">
                                    <mask id="mask-2" fill="white">
                                        <use xlink:href="#path-1"></use>
                                    </mask>
                                    <g id="Clip-2"></g>
                                    <path d="M12.8947895,15.6883366 C13.0862766,15.3794933 13.1981124,15.0220679 13.1981124,14.644053 L13.1981124,1.24927687 C13.1981124,0.885605224 13.0941491,0.52956791 12.9105345,0.218411194 L9.26176828e-05,7.95823209 L12.8947895,15.6883366 Z" id="Fill-1" fill="#FABA24" mask="url(#mask-2)"></path>
                                </g>
                                <path d="M13.1980198,30.8148328 C13.5684905,30.8148328 13.9158068,30.7225269 14.2399687,30.5140866 L25.4003995,23.8282657 C25.6851989,23.6533701 25.9206793,23.4148552 26.0927167,23.1374746 L13.1980198,15.4073701 L13.1980198,30.8148328 Z" id="Fill-4" fill="#F4A11E"></path>
                                <path d="M0.296885982,23.1414306 C0.466144798,23.4169604 0.701393712,23.6540873 0.995686399,23.8282888 L12.1561172,30.5141097 C12.4802791,30.6991843 12.8507498,30.814856 13.1980661,30.814856 L13.1980661,15.4073933 L0.296885982,23.1414306 Z" id="Fill-6" fill="#D36529"></path>
                                <path d="M0.292255098,7.67069552 C0.107019732,7.97583731 4.63088414e-05,8.32724776 4.63088414e-05,8.69855373 L4.63088414e-05,22.0933299 C4.63088414e-05,22.4729642 0.1063251,22.8315463 0.296885982,23.1415463 L13.1980661,15.407509 L0.292255098,7.67069552 Z" id="Fill-8" fill="#D8752F"></path>
                                <path d="M25.4235076,6.96343284 L14.2630768,0.27761194 C13.938915,0.0925373134 13.5684442,-2.84217094e-14 13.2211279,-2.84217094e-14 C12.8506572,-2.84217094e-14 12.5033409,0.0925373134 12.179179,0.27761194 L0.995593781,6.96343284 C0.705237346,7.14202985 0.464894459,7.38632836 0.29216248,7.67064925 L13.1979735,15.4074627 L26.1086469,7.66764179 C25.9419351,7.38517164 25.7099278,7.13971642 25.4235076,6.96343284" id="Fill-10" fill="#D53416"></path>
                            </g>
                        </g>
                    </g>
                </g>
            </g>
        </g>
    </g>
</svg>